HIERARCHY
ROOT Hips
{
     OFFSET 0.81480 96.67000 67.59230
     CHANNELS 6 Xposition Yposition Zposition Zrotation Xrotation Yrotation
     JOINT Spine
     {
          OFFSET 0.00000 11.89050 -0.00000
          CHANNELS 3 Zrotation Xrotation Yrotation
          JOINT Spine1
          {
               OFFSET 0.00000 25.65740 0.12766
               CHANNELS 3 Zrotation Xrotation Yrotation
               JOINT HEad
               {
                    OFFSET 0.00000 8.73416 0.01134
                    CHANNELS 3 Zrotation Xrotation Yrotation
                    End Site
                    {
                         OFFSET -0.29000 12.77420 2.51395
                    }
               }
               JOINT LeftShoulder1
               {
                    OFFSET 8.99000 -0.36225 -0.22000
                    CHANNELS 3 Zrotation Xrotation Yrotation
                    JOINT LeftArm
                    {
                         OFFSET 10.28270 -0.00338 0.32212
                         CHANNELS 3 Zrotation Xrotation Yrotation
                         JOINT LeftForeArm
                         {
                              OFFSET 32.76690 0.09914 -1.42434
                              CHANNELS 3 Zrotation Xrotation Yrotation
                              JOINT LeftHand
                              {
                                   OFFSET 27.56430 0.08536 1.02216
                                   CHANNELS 3 Zrotation Xrotation Yrotation
                                   End Site
                                   {
                                        OFFSET 16.74430 -0.60000 1.50291
                                   }
                              }
                         }
                    }
               }
               JOINT RightShoulder
               {
                    OFFSET -8.99000 -0.36225 -0.22000
                    CHANNELS 3 Zrotation Xrotation Yrotation
                    JOINT RightArm
                    {
                         OFFSET -10.28270 -0.00338 0.32212
                         CHANNELS 3 Zrotation Xrotation Yrotation
                         JOINT RightForeArm
                         {
                              OFFSET -32.89710 0.09914 -1.42434
                              CHANNELS 3 Zrotation Xrotation Yrotation
                              JOINT RightHand
                              {
                                   OFFSET -27.49210 0.08536 1.02216
                                   CHANNELS 3 Zrotation Xrotation Yrotation
                                   End Site
                                   {
                                        OFFSET -16.63120 -0.60000 1.50291
                                   }
                              }
                         }
                    }
               }
          }
     }
     JOINT LeftUpLeg
     {
          OFFSET 8.94580 -8.66707 0.10165
          CHANNELS 3 Zrotation Xrotation Yrotation
          JOINT LeftLeg
          {
               OFFSET -0.00000 -44.42270 1.37270
               CHANNELS 3 Zrotation Xrotation Yrotation
               JOINT LeftFoot
               {
                    OFFSET -0.25355 -42.09240 -1.46059
                    CHANNELS 3 Zrotation Xrotation Yrotation
                    JOINT LeftToes
                    {
                         OFFSET -0.04000 -4.41509 8.49910
                         CHANNELS 3 Zrotation Xrotation Yrotation
                         End Site
                         {
                              OFFSET 0.08000 -0.04745 9.77979
                         }
                    }
               }
          }
     }
     JOINT RightUpLeg
     {
          OFFSET -8.94580 -8.66707 0.10165
          CHANNELS 3 Zrotation Xrotation Yrotation
          JOINT RightLeg
          {
               OFFSET -0.00000 -44.42270 1.37270
               CHANNELS 3 Zrotation Xrotation Yrotation
               JOINT RightFoot
               {
                    OFFSET 0.25355 -42.09240 -1.46059
                    CHANNELS 3 Zrotation Xrotation Yrotation
                    JOINT RightToes
                    {
                         OFFSET 0.04000 -4.41509 8.49910
                         CHANNELS 3 Zrotation Xrotation Yrotation
                         End Site
                         {
                              OFFSET -0.08000 -0.13745 9.77979
                         }
                    }
               }
          }
     }
}
MOTION
Frames: 12
Frame Time: 0.01667
-0.91815 93.05230 18.55050 -3.14599 3.54053 -23.23090 6.61115 11.35820 -5.12323 19.82670 21.34760 -13.38110 -8.38879 -20.32420 8.80799 -0.00000 -0.00000 0.00000 -121.18400 -59.91090 -95.02540 -10.51810 56.75810 -110.13100 28.55500 5.76131 -12.41240 13.28060 0.56818 0.87397 68.99230 1.82552 84.14210 4.74474 30.00610 96.32480 -12.67150 10.88190 -13.84080 -4.30004 -28.57590 -4.03593 -40.97090 76.86190 66.60190 -33.74720 6.60375 4.24950 9.99401 -9.87014 -68.32500 -4.31181 -26.59730 -32.40430 -30.91390 32.60110 25.86410 17.40860 -6.52147 -0.33966 1.59747 -16.74150 36.13030 
-0.57193 93.72510 20.48040 -2.06842 2.97956 -24.38310 4.43770 11.67670 -4.83412 18.05580 22.02840 -12.55010 -7.78518 -19.97430 9.96025 -0.00000 -0.00000 0.00000 -122.02100 -60.91700 -96.65970 -10.46170 56.62570 -109.85100 28.31470 5.81048 -12.36490 12.48640 0.59814 1.19215 69.51380 1.57885 83.66400 4.67494 30.25580 96.48580 -12.75740 10.86370 -13.59760 -3.16042 -32.66930 -4.10989 -35.24240 75.71080 62.98830 -31.50340 5.96498 3.77428 9.18139 -12.33930 -70.01710 -5.29373 -24.51000 -31.90010 -30.49800 30.02680 25.97730 18.73210 -6.17709 -0.40802 1.61053 -16.77130 36.17130 
-0.24491 94.32380 22.32390 -0.97295 2.30750 -25.38830 2.11492 11.95050 -4.62235 15.99710 22.53500 -11.73700 -7.16122 -19.25210 11.05720 -0.00000 -0.00000 0.00000 -123.61800 -61.54910 -99.50220 -9.82391 56.51100 -110.12700 28.20330 5.88684 -12.12720 11.67410 0.60731 1.40259 69.94880 1.21968 83.28680 4.61850 30.46540 96.75900 -12.83380 10.85020 -13.41040 -1.68100 -35.82560 -4.84320 -28.19800 72.19710 58.22670 -29.51160 5.82012 3.48469 7.99868 -15.46160 -71.97710 -6.22494 -22.35410 -31.45450 -30.41130 27.17070 26.10530 20.44900 -6.00281 -0.46144 1.45921 -16.42000 36.19850 
0.06622 94.73220 24.15560 -0.03723 1.68030 -26.33010 0.09868 12.14570 -4.45967 13.78220 22.82510 -10.90520 -6.41667 -18.24500 12.03390 -0.00000 -0.00000 0.00000 -125.96200 -61.73290 -103.30700 -9.23763 56.53020 -110.43800 28.26980 5.93914 -11.87650 10.77620 0.59348 1.48732 70.46010 0.88725 83.00940 4.71308 30.60850 97.07350 -12.97080 10.85250 -13.32950 0.20529 -38.00550 -5.76585 -21.51090 66.64310 54.07380 -28.05820 5.88696 3.31973 6.88875 -18.06410 -73.49000 -6.96540 -20.32100 -31.09510 -30.71520 24.36390 26.38360 22.39190 -6.13830 -0.46463 1.18425 -15.78150 36.25750 
0.36511 94.86160 26.07610 0.57445 1.22283 -27.32870 -1.23260 12.19800 -4.29904 11.57640 22.86780 -10.04950 -5.47214 -17.04420 12.91720 -0.00000 -0.00000 0.00000 -128.99500 -61.46980 -107.82700 -9.15606 56.78690 -110.37600 28.50180 5.93604 -11.75010 9.78621 0.56805 1.51382 71.16630 0.62554 82.84280 5.03502 30.74570 97.30840 -13.24050 10.87470 -13.34000 2.61570 -39.16100 -6.51315 -15.69050 59.39340 50.68720 -27.20660 5.97471 3.23410 6.60175 -18.69660 -73.82230 -7.46425 -18.59390 -30.73740 -31.31400 22.09660 26.83690 24.20620 -6.63340 -0.38645 0.91319 -15.15350 36.37890 
0.67098 94.70330 28.21130 0.78966 0.97471 -28.47470 -1.79585 11.99890 -4.07991 9.52761 22.60930 -9.20615 -4.35942 -15.68620 13.76240 -0.00000 -0.00000 0.00000 -132.49800 -60.80710 -112.71900 -9.61134 57.24600 -109.85700 28.78620 5.88792 -11.77260 8.75685 0.54672 1.58730 72.10460 0.40166 82.81660 5.60749 30.96010 97.30650 -13.66580 10.91050 -13.36230 5.49852 -39.16680 -6.99651 -10.62670 50.71630 47.33470 -26.83170 6.26048 3.25292 7.62687 -16.39170 -72.72280 -7.80329 -17.21330 -30.30410 -32.01560 20.70490 27.42550 25.59690 -7.39971 -0.22950 0.78425 -14.85940 36.55190 
0.99830 94.26740 30.67380 0.63935 0.91598 -29.80230 -1.66094 11.51830 -3.77570 7.75814 22.02950 -8.44548 -3.22142 -14.12440 14.60510 -0.00000 -0.00000 0.00000 -136.14999 -59.84110 -117.56900 -10.28870 57.75040 -109.08100 28.98150 5.83953 -11.84760 7.74607 0.53743 1.77498 73.22520 0.17377 82.98190 6.46059 31.27920 96.89490 -14.17630 10.94380 -13.30320 8.62984 -37.94820 -7.41894 -6.15725 40.97980 43.34990 -26.72570 7.22032 3.45914 9.66591 -11.33770 -70.58250 -8.16542 -16.17580 -29.78040 -32.67980 20.41840 28.10930 26.48240 -8.35015 -0.01248 0.86959 -15.06310 36.75370 
1.37574 93.51260 33.61940 0.23816 0.97281 -31.24700 -1.01224 10.89660 -3.45554 6.32743 21.19830 -7.80522 -2.21761 -12.29880 15.45700 -0.00000 -0.00000 0.00000 -139.62900 -58.69220 -121.96100 -10.72640 58.14890 -108.40100 29.02160 5.84510 -11.80230 6.81173 0.53545 2.04059 74.39650 -0.07476 83.37990 7.64830 31.68500 95.93910 -14.66110 10.95780 -13.10490 11.61340 -35.72780 -8.20699 -2.23299 31.18180 38.57160 -26.69750 9.02359 3.86757 11.80450 -5.10170 -67.97350 -8.82714 -15.42400 -29.21210 -33.32040 21.38550 28.82370 27.08150 -9.48510 0.26005 1.15992 -15.73430 36.98960 
1.80821 92.47480 37.02170 -0.26953 0.94229 -32.73410 -0.29353 10.26290 -3.18163 5.18861 20.21320 -7.25054 -1.45053 -10.26300 16.34530 -0.00000 -0.00000 0.00000 -142.69299 -57.47970 -125.55200 -10.58810 58.38650 -108.10200 28.93820 5.92985 -11.51920 5.99097 0.52956 2.26800 75.48760 -0.30579 84.00200 9.16174 32.15750 94.42870 -15.08240 10.94720 -12.75990 14.01800 -32.97510 -9.78192 1.17378 22.90050 33.29380 -26.70860 11.29240 4.38832 12.98760 -0.33573 -65.09110 -9.94560 -14.73830 -28.61970 -33.99050 23.32630 29.37390 27.67800 -10.61660 0.54519 1.59005 -16.71170 37.23420 
2.26528 91.32830 40.52020 -0.80242 0.55887 -34.26960 0.03926 9.65191 -2.92175 4.24982 19.17550 -6.74267 -0.96892 -8.19632 17.32400 -0.00000 -0.00000 0.00000 -145.24899 -56.29260 -128.20300 -9.85085 58.49580 -108.20800 28.81950 6.06440 -11.05780 5.23924 0.51230 2.37549 76.47550 -0.41191 84.79310 10.81520 32.65680 92.55070 -15.47260 10.91870 -12.31190 15.64310 -30.12880 -12.12120 3.89311 17.53820 28.19880 -27.05890 13.29580 4.91413 12.56610 0.60781 -61.73320 -11.44750 -13.95740 -27.86780 -34.67870 25.82050 29.49100 28.24830 -11.41880 0.76073 2.06100 -17.76730 37.38740 
2.73937 90.18780 43.81890 -1.33831 -0.31577 -35.75030 -0.18501 9.20151 -2.72100 3.43788 18.27490 -6.31254 -0.76831 -6.30585 18.44070 -0.00000 -0.00000 0.00000 -147.30000 -55.13620 -129.97501 -8.69143 58.52900 -108.56800 28.77270 6.18856 -10.59340 4.45069 0.48712 2.42071 77.45570 -0.30434 85.68580 12.27160 33.11510 90.67030 -15.83810 10.88330 -11.84620 16.33760 -28.05770 -14.71780 5.35889 16.64050 23.86420 -28.26810 13.77610 5.26338 10.94880 -2.23565 -58.05660 -13.25320 -13.09340 -26.68020 -35.38530 28.86050 28.91060 28.61350 -11.86660 0.88689 2.44143 -18.61720 37.38580 
3.23013 89.16460 46.69290 -1.91250 -1.70064 -37.01840 -0.91138 8.99473 -2.60382 2.70878 17.69410 -6.03910 -0.74979 -4.75526 19.67460 -0.00000 -0.00000 0.00000 -148.74899 -53.91240 -130.95799 -7.21097 58.47260 -109.12600 28.87140 6.27041 -10.21680 3.59260 0.46600 2.56262 78.55300 -0.00492 86.61310 13.22610 33.50700 89.19910 -16.15990 10.85280 -11.45980 16.29370 -27.11740 -16.72630 4.85427 19.78270 20.87120 -29.84390 12.67910 5.29209 9.10901 -7.23044 -55.34270 -15.18500 -12.17520 -24.85760 -36.07950 32.43780 27.46240 28.54090 -12.02000 0.92274 2.60627 -18.98880 37.31670 
